<svg width="28" height="33" viewBox="0 0 28 33" fill="none" xmlns="http://www.w3.org/2000/svg">
<path d="M27.993 30.3354L26.5859 12.1856C26.487 10.9042 25.3948 9.90011 24.0996 9.90011H20.6512V6.60007C20.6512 2.96113 17.6677 0 14.0003 0C10.3334 0 7.34944 2.96076 7.34944 6.60007V9.90011H3.90107C2.60588 9.90011 1.51333 10.904 1.41446 12.1853L0.00733688 30.3351C-0.0460138 31.0202 0.193484 31.7021 0.664076 32.2065C1.13496 32.7111 1.80153 33 2.49422 33H25.5061C26.1985 33 26.8656 32.7108 27.3359 32.2067C27.8057 31.7026 28.046 31.0204 27.9927 30.3353L27.993 30.3354ZM9.01242 6.60066C9.01242 3.8712 11.25 1.65079 14.0004 1.65079C16.7508 1.65079 18.9884 3.87127 18.9884 6.60066V9.9007L9.01227 9.90041L9.01242 6.60066ZM26.1166 31.0859C25.9577 31.2563 25.7408 31.3504 25.5065 31.3504H2.49463C2.26064 31.3504 2.04376 31.2563 1.88428 31.0859C1.7251 30.9156 1.64739 30.6941 1.66566 30.4621L3.07278 12.3123C3.10584 11.8848 3.47002 11.5504 3.90145 11.5504H7.34982V15.6754C7.34982 16.1308 7.7224 16.5003 8.18109 16.5003C8.64008 16.5003 9.01236 16.1305 9.01236 15.6754L9.01265 11.5504H18.9888V15.6754C18.9888 16.1308 19.3614 16.5003 19.82 16.5003C20.279 16.5003 20.6513 16.1305 20.6513 15.6754L20.6516 11.5504H24.1C24.532 11.5504 24.8959 11.885 24.9289 12.3123L26.3361 30.4621C26.3537 30.694 26.276 30.915 26.1169 31.0859H26.1166Z" fill="black"/>
</svg>
