<svg width="10" height="10" viewBox="0 0 10 10" fill="none" xmlns="http://www.w3.org/2000/svg">
<path fill-rule="evenodd" clip-rule="evenodd" d="M4.19187 4.00014L1.1673 0.975568C0.943861 0.752125 0.943861 0.391025 1.1673 0.167582C1.39075 -0.0558607 1.75185 -0.0558607 1.97529 0.167582L4.99986 3.19215L8.02443 0.167582C8.24787 -0.0558607 8.60897 -0.0558607 8.83242 0.167582C9.05586 0.391025 9.05586 0.752125 8.83242 0.975568L5.80785 4.00014L8.83242 7.02471C9.05586 7.24815 9.05586 7.60925 8.83242 7.8327C8.72098 7.94414 8.57472 8.00017 8.4284 8.00017C8.28215 8.00017 8.13588 7.94414 8.02445 7.8327L4.99987 4.80813L1.9753 7.8327C1.86386 7.94414 1.7176 8.00017 1.57129 8.00017C1.42503 8.00017 1.27876 7.94414 1.16733 7.8327C0.943889 7.60925 0.943889 7.24815 1.16733 7.02471L4.1919 4.00014" fill="#666666"/>
</svg>
