<svg width="13" height="19" viewBox="0 0 13 19" fill="none" xmlns="http://www.w3.org/2000/svg">
<path d="M2.16626 0.402242L3.1526 0.086909C4.07751 -0.208258 5.06568 0.269326 5.46168 1.20249L6.25001 3.06149C6.59284 3.87091 6.40218 4.82333 5.77885 5.41549L4.04176 7.06366C4.14901 8.04999 4.48084 9.02074 5.03635 9.97591C5.56386 10.9 6.27143 11.7089 7.11718 12.3547L9.20351 11.658C9.99368 11.3949 10.8553 11.6983 11.3393 12.4106L12.4696 14.0697C13.0333 14.8984 12.9316 16.0406 12.2322 16.7427L11.4833 17.4953C10.7371 18.2442 9.67101 18.5165 8.68559 18.2085C6.35726 17.4825 4.21868 15.3274 2.26618 11.7432C0.310929 8.15358 -0.379321 5.10658 0.196346 2.60591C0.438346 1.55358 1.18726 0.714826 2.16626 0.402242Z" fill="black"/>
</svg>
