<svg width="48" height="34" viewBox="0 0 48 34" fill="none" xmlns="http://www.w3.org/2000/svg">
<path d="M2.63431 0H45.3483C46.8002 0 47.9826 1.1934 47.9826 2.65883V31.0284C47.9826 32.4938 46.8002 33.6872 45.3483 33.6872H2.63431C1.18239 33.696 0 32.5026 0 31.0372V2.65883C0 1.1934 1.18239 0 2.63431 0Z" fill="#B22234"/>
<path d="M0.0173882 2.39557H47.9826C47.9913 2.48332 48 2.57107 48 2.66759V5.24745H0V2.65882C0 2.57107 0.00869408 2.48332 0.0173882 2.39557ZM47.9913 7.60792V10.451H0V7.60792H47.9913ZM47.9913 12.8203V15.6634H0V12.8203H47.9913ZM47.9913 18.0326V20.8757H0V18.0326H47.9913ZM47.9913 23.245V26.0881H0V23.245H47.9913ZM47.9913 28.4573V31.0284C47.9913 31.1162 47.9826 31.2127 47.9739 31.3004H0.0173882C0.00869408 31.2215 0 31.1249 0 31.0372V28.4661H47.9913V28.4573Z" fill="white"/>
<path d="M18.0837 0V18.1467H0V2.65883C0 1.1934 1.18239 0 2.63431 0H18.0837Z" fill="#3C3B6E"/>
<path d="M1.06947 2.50964L1.66936 4.39627L0.0870361 3.22919H2.0519L0.460881 4.39627L1.06947 2.50964Z" fill="white"/>
<path d="M1.06947 6.1601L1.66936 8.04672L0.0870361 6.87965H2.0519L0.460881 8.04672L1.06947 6.1601Z" fill="white"/>
<path d="M1.06947 9.81042L1.66936 11.6971L0.0870361 10.53H2.0519L0.460881 11.6971L1.06947 9.81042Z" fill="white"/>
<path d="M1.06947 13.4608L1.66936 15.3474L0.0870361 14.1804H2.0519L0.460881 15.3474L1.06947 13.4608Z" fill="white"/>
<path d="M3.1908 0.684448L3.79939 2.57107L2.20837 1.404H4.18193L2.58222 2.57107L3.1908 0.684448Z" fill="white"/>
<path d="M3.1908 4.33484L3.79939 6.22147L2.20837 5.05439H4.18193L2.58222 6.22147L3.1908 4.33484Z" fill="white"/>
<path d="M3.1908 7.98529L3.79939 9.87192L2.20837 8.70484H4.18193L2.58222 9.87192L3.1908 7.98529Z" fill="white"/>
<path d="M3.1908 11.6357L3.79939 13.5223L2.20837 12.3552H4.18193L2.58222 13.5223L3.1908 11.6357Z" fill="white"/>
<path d="M3.1908 15.2861L3.79939 17.1728L2.20837 16.0057H4.18193L2.58222 17.1728L3.1908 15.2861Z" fill="white"/>
<path d="M5.32081 2.50964L5.9294 4.39627L4.33838 3.22919H6.30324L4.71222 4.39627L5.32081 2.50964Z" fill="white"/>
<path d="M5.32081 6.1601L5.9294 8.04672L4.33838 6.87965H6.30324L4.71222 8.04672L5.32081 6.1601Z" fill="white"/>
<path d="M5.32081 9.81042L5.9294 11.6971L4.33838 10.53H6.30324L4.71222 11.6971L5.32081 9.81042Z" fill="white"/>
<path d="M5.32081 13.4608L5.9294 15.3474L4.33838 14.1804H6.30324L4.71222 15.3474L5.32081 13.4608Z" fill="white"/>
<path d="M7.45081 0.684448L8.05071 2.57107L6.46838 1.404H8.43325L6.84223 2.57107L7.45081 0.684448Z" fill="white"/>
<path d="M7.45081 4.33484L8.05071 6.22147L6.46838 5.05439H8.43325L6.84223 6.22147L7.45081 4.33484Z" fill="white"/>
<path d="M7.45081 7.98529L8.05071 9.87192L6.46838 8.70484H8.43325L6.84223 9.87192L7.45081 7.98529Z" fill="white"/>
<path d="M7.45081 11.6357L8.05071 13.5223L6.46838 12.3552H8.43325L6.84223 13.5223L7.45081 11.6357Z" fill="white"/>
<path d="M7.45081 15.2861L8.05071 17.1728L6.46838 16.0057H8.43325L6.84223 17.1728L7.45081 15.2861Z" fill="white"/>
<path d="M9.57215 2.50964L10.1807 4.39627L8.58972 3.22919H10.5546L8.96357 4.39627L9.57215 2.50964Z" fill="white"/>
<path d="M9.57215 6.1601L10.1807 8.04672L8.58972 6.87965H10.5546L8.96357 8.04672L9.57215 6.1601Z" fill="white"/>
<path d="M9.57215 9.81042L10.1807 11.6971L8.58972 10.53H10.5546L8.96357 11.6971L9.57215 9.81042Z" fill="white"/>
<path d="M9.57215 13.4608L10.1807 15.3474L8.58972 14.1804H10.5546L8.96357 15.3474L9.57215 13.4608Z" fill="white"/>
<path d="M11.7023 0.684448L12.3109 2.57107L10.7198 1.404H12.6847L11.0937 2.57107L11.7023 0.684448Z" fill="white"/>
<path d="M11.7023 4.33484L12.3109 6.22147L10.7198 5.05439H12.6847L11.0937 6.22147L11.7023 4.33484Z" fill="white"/>
<path d="M11.7023 7.98529L12.3109 9.87192L10.7198 8.70484H12.6847L11.0937 9.87192L11.7023 7.98529Z" fill="white"/>
<path d="M11.7023 11.6357L12.3109 13.5223L10.7198 12.3552H12.6847L11.0937 13.5223L11.7023 11.6357Z" fill="white"/>
<path d="M11.7023 15.2861L12.3109 17.1728L10.7198 16.0057H12.6847L11.0937 17.1728L11.7023 15.2861Z" fill="white"/>
<path d="M13.8236 2.50964L14.4322 4.39627L12.8412 3.22919H14.806L13.2237 4.39627L13.8236 2.50964Z" fill="white"/>
<path d="M13.8236 6.1601L14.4322 8.04672L12.8412 6.87965H14.806L13.2237 8.04672L13.8236 6.1601Z" fill="white"/>
<path d="M13.8236 9.81042L14.4322 11.6971L12.8412 10.53H14.806L13.2237 11.6971L13.8236 9.81042Z" fill="white"/>
<path d="M13.8236 13.4608L14.4322 15.3474L12.8412 14.1804H14.806L13.2237 15.3474L13.8236 13.4608Z" fill="white"/>
<path d="M15.9537 0.684448L16.5623 2.57107L14.9713 1.404H16.9362L15.3452 2.57107L15.9537 0.684448Z" fill="white"/>
<path d="M15.9537 4.33484L16.5623 6.22147L14.9713 5.05439H16.9362L15.3452 6.22147L15.9537 4.33484Z" fill="white"/>
<path d="M15.9537 7.98529L16.5623 9.87192L14.9713 8.70484H16.9362L15.3452 9.87192L15.9537 7.98529Z" fill="white"/>
<path d="M15.9537 11.6357L16.5623 13.5223L14.9713 12.3552H16.9362L15.3452 13.5223L15.9537 11.6357Z" fill="white"/>
<path d="M15.9537 15.2861L16.5623 17.1728L14.9713 16.0057H16.9362L15.3452 17.1728L15.9537 15.2861Z" fill="white"/>
</svg>
